<?xml version="1.0" encoding="UTF-8" standalone="no"?>
<!DOCTYPE svg PUBLIC "-//W3C//DTD SVG 1.1//EN" "http://www.w3.org/Graphics/SVG/1.1/DTD/svg11.dtd">
<!-- Generated by Microsoft Visio, SVG Export nodered.svg Page-1 -->
<svg xmlns="http://www.w3.org/2000/svg" xmlns:xlink="http://www.w3.org/1999/xlink" xmlns:ev="http://www.w3.org/2001/xml-events"
		width="9.24253in" height="8.88789in" viewBox="0 0 665.462 639.928" xml:space="preserve" color-interpolation-filters="sRGB"
		class="st17">
	<style type="text/css">
	<![CDATA[
		.st1 {fill:#5c2071;stroke:#b2aec0;stroke-width:0.25}
		.st2 {stroke:#5c2071;stroke-dasharray:7,5;stroke-linecap:round;stroke-linejoin:round;stroke-width:1}
		.st3 {fill:#e3def5;font-family:Calibri;font-size:1.00001em;font-weight:bold}
		.st4 {fill:#e3def5;font-family:Calibri;font-size:0.833336em;font-weight:bold}
		.st5 {font-size:1em}
		.st6 {fill:#c51b58;stroke:#c51b58;stroke-linecap:round;stroke-linejoin:round;stroke-width:1}
		.st7 {marker-end:url(#mrkr4-74);stroke:#c51b58;stroke-linecap:round;stroke-linejoin:round;stroke-width:1}
		.st8 {fill:#c51b58;fill-opacity:1;stroke:#c51b58;stroke-opacity:1;stroke-width:0.23584905660377}
		.st9 {fill:#ffffff;stroke:none;stroke-linecap:butt;stroke-width:7.2}
		.st10 {fill:#ad164c;font-family:Calibri;font-size:0.666664em}
		.st11 {marker-end:url(#mrkr3-99);stroke:#c51b58;stroke-dasharray:7,5;stroke-linecap:round;stroke-linejoin:round;stroke-width:1}
		.st12 {fill:#861889;fill-opacity:0;stroke:#751377;stroke-width:0.75}
		.st13 {fill:#ffffff;stroke:#751377;stroke-width:0.75}
		.st14 {fill:#751478;font-family:Calibri;font-size:0.666664em;font-weight:bold}
		.st15 {fill:#feffff;stroke:none;stroke-linecap:butt;stroke-width:7.2}
		.st16 {fill:#751377;font-family:Calibri;font-size:0.666664em}
		.st17 {fill:none;fill-rule:evenodd;font-size:12px;overflow:visible;stroke-linecap:square;stroke-miterlimit:3}
	]]>
	</style>

	<defs id="Markers">
		<g id="lend4">
			<path d="M 2 1 L 0 0 L 2 -1 L 2 1 " style="stroke:none"/>
		</g>
		<marker id="mrkr4-74" class="st8" refX="-8.48" orient="auto" markerUnits="strokeWidth" overflow="visible">
			<use xlink:href="#lend4" transform="scale(-4.24,-4.24) "/>
		</marker>
		<g id="lend3">
			<path d="M 2 1 L 0 0 L 2 -1 " style="stroke-linecap:round;stroke-linejoin:round;fill:none"/>
		</g>
		<marker id="mrkr3-99" class="st8" orient="auto" markerUnits="strokeWidth" overflow="visible">
			<use xlink:href="#lend3" transform="scale(-4.24,-4.24) "/>
		</marker>
	</defs>
	<g>
		<title>Page-1</title>
		<g id="group2-1" transform="translate(18.25,-558.607)">
			<title>Actor lifeline</title>
			<desc>User</desc>
			<g id="shape3-2">
				<title>Sheet.3</title>
				<rect x="0" y="614.416" width="51.0236" height="25.5118" class="st1"/>
			</g>
			<g id="shape4-4" transform="translate(17.0079,-29.0551)">
				<title>Sheet.4</title>
				<path d="M3.4 639.93 L3.4 622.92 L3.4 629.72 L0 629.72 L0 616.12 L1.7 614.42 L15.31 614.42 L17.01 616.12 L17.01 629.72
							 L13.61 629.72 L13.61 622.92 L13.61 639.93 L8.5 639.93 L8.5 626.32 L8.5 639.93 L3.4 639.93 ZM11.91 609.31
							 A3.40157 3.40157 -180 1 0 5.1 609.31 A3.40157 3.40157 -180 1 0 11.91 609.31 Z" class="st1"/>
			</g>
			<g id="shape5-6" transform="translate(17.0079,540.607)">
				<title>Sheet.5</title>
			</g>
			<g id="shape6-8" transform="translate(665.44,639.928) rotate(90)">
				<title>Sheet.6</title>
				<path d="M0 639.93 L522.99 639.93" class="st2"/>
			</g>
			<g id="shape2-11">
				<rect x="0" y="614.416" width="51.0236" height="25.5118" class="st1"/>
				<text x="14.05" y="630.77" class="st3">User</text>			</g>
		</g>
		<g id="group7-14" transform="translate(151.042,-558.607)">
			<title>Object lifeline</title>
			<desc>NodeRED</desc>
			<g id="shape8-15">
				<title>Sheet.8</title>
				<rect x="0" y="614.416" width="51.0236" height="25.5118" class="st1"/>
			</g>
			<g id="shape9-17" transform="translate(17.0079,-29.0551)">
				<title>Sheet.9</title>
				<path d="M8.5 639.93 a0 0 0 1 1 0 0 a0 0 0 1 1 0 0 Z" class="st1"/>
			</g>
			<g id="shape10-19" transform="translate(17.0079,540.607)">
				<title>Sheet.10</title>
			</g>
			<g id="shape11-21" transform="translate(665.44,639.928) rotate(90)">
				<title>Sheet.11</title>
				<path d="M0 639.93 L522.99 639.93" class="st2"/>
			</g>
			<g id="shape7-24">
				<rect x="0" y="614.416" width="51.0236" height="25.5118" class="st1"/>
				<text x="5.92" y="630.17" class="st4">NodeRED</text>			</g>
		</g>
		<g id="group12-27" transform="translate(283.834,-558.607)">
			<title>Object lifeline.12</title>
			<desc>DCC Boxed</desc>
			<g id="shape13-28">
				<title>Sheet.13</title>
				<rect x="0" y="614.416" width="51.0236" height="25.5118" class="st1"/>
			</g>
			<g id="shape14-30" transform="translate(17.0079,-29.0551)">
				<title>Sheet.14</title>
				<path d="M8.5 639.93 a0 0 0 1 1 0 0 a0 0 0 1 1 0 0 Z" class="st1"/>
			</g>
			<g id="shape15-32" transform="translate(17.0079,540.607)">
				<title>Sheet.15</title>
			</g>
			<g id="shape16-34" transform="translate(665.44,639.928) rotate(90)">
				<title>Sheet.16</title>
				<path d="M0 639.93 L522.99 639.93" class="st2"/>
			</g>
			<g id="shape12-37">
				<rect x="0" y="614.416" width="51.0236" height="25.5118" class="st1"/>
				<text x="15.38" y="623.57" class="st3">DCC <tspan x="9.93" dy="1.2em" class="st5">Boxed</tspan></text>			</g>
		</g>
		<g id="group17-41" transform="translate(416.627,-558.607)">
			<title>Object lifeline.17</title>
			<desc>CH</desc>
			<g id="shape18-42">
				<title>Sheet.18</title>
				<rect x="0" y="614.416" width="51.0236" height="25.5118" class="st1"/>
			</g>
			<g id="shape19-44" transform="translate(17.0079,-29.0551)">
				<title>Sheet.19</title>
				<path d="M8.5 639.93 a0 0 0 1 1 0 0 a0 0 0 1 1 0 0 Z" class="st1"/>
			</g>
			<g id="shape20-46" transform="translate(17.0079,540.607)">
				<title>Sheet.20</title>
			</g>
			<g id="shape21-48" transform="translate(665.44,639.928) rotate(90)">
				<title>Sheet.21</title>
				<path d="M0 639.93 L522.99 639.93" class="st2"/>
			</g>
			<g id="shape17-51">
				<rect x="0" y="614.416" width="51.0236" height="25.5118" class="st1"/>
				<text x="18.55" y="630.77" class="st3">CH</text>			</g>
		</g>
		<g id="group22-54" transform="translate(549.419,-558.607)">
			<title>Object lifeline.22</title>
			<desc>ESME</desc>
			<g id="shape23-55">
				<title>Sheet.23</title>
				<rect x="0" y="614.416" width="51.0236" height="25.5118" class="st1"/>
			</g>
			<g id="shape24-57" transform="translate(17.0079,-29.0551)">
				<title>Sheet.24</title>
				<path d="M8.5 639.93 a0 0 0 1 1 0 0 a0 0 0 1 1 0 0 Z" class="st1"/>
			</g>
			<g id="shape25-59" transform="translate(17.0079,540.607)">
				<title>Sheet.25</title>
			</g>
			<g id="shape26-61" transform="translate(665.44,639.928) rotate(90)">
				<title>Sheet.26</title>
				<path d="M0 639.93 L522.99 639.93" class="st2"/>
			</g>
			<g id="shape22-64">
				<rect x="0" y="614.416" width="51.0236" height="25.5118" class="st1"/>
				<text x="11.58" y="630.77" class="st3">ESME</text>			</g>
		</g>
		<g id="shape27-67" transform="translate(-459.122,351.321) rotate(-90)">
			<title>Activation</title>
			<rect x="0" y="631.424" width="252" height="8.50394" class="st6"/>
		</g>
		<g id="shape1000-69" transform="translate(43.7618,-547.694)">
			<title>Message.1000</title>
			<desc>Trigger Request (e.g. press button)</desc>
			<path d="M0 647.01 L120.06 647.01" class="st7"/>
			<rect x="34.4345" y="637.415" width="59.6714" height="19.1997" class="st9"/>
			<text x="38.69" y="644.62" class="st10">Trigger Request <tspan x="34.43" dy="1.2em" class="st5">(e.g. press button)</tspan></text>		</g>
		<g id="shape1002-78" transform="translate(173.719,-522.607)">
			<title>Self Message.1002</title>
			<desc>Build SRV XML &#38; Sign</desc>
			<path d="M7.09 639.93 L25.09 639.93 L25.09 657.93 L15.57 657.93" class="st7"/>
			<rect x="20.0268" y="644.483" width="69.5146" height="9.59985" class="st9"/>
			<text x="20.03" y="651.68" class="st10">Build SRV XML &#38; Sign</text>		</g>
		<g id="shape1003-85" transform="translate(-326.33,207.321) rotate(-90)">
			<title>Activation.1003</title>
			<rect x="0" y="631.424" width="54" height="8.50394" class="st6"/>
		</g>
		<g id="shape1004-87" transform="translate(180.806,-493.694)">
			<title>Message.1004</title>
			<desc>Send Request</desc>
			<path d="M0 647.01 L115.81 647.01" class="st7"/>
			<rect x="39.9493" y="642.215" width="44.39" height="9.59985" class="st9"/>
			<text x="39.95" y="649.42" class="st10">Send Request</text>		</g>
		<g id="shape1005-94" transform="translate(305.094,-335.521)">
			<title>Return Message.1005</title>
			<desc>Acknowledgment (I99)</desc>
			<path d="M0 632.84 L-124.29 632.84" class="st11"/>
			<rect x="-98.9503" y="628.042" width="73.6125" height="9.59985" class="st9"/>
			<text x="-98.95" y="635.24" class="st10">Acknowledgment (I99)</text>		</g>
		<g id="shape1006-102" transform="translate(173.719,-324.607)">
			<title>Self Message.1006</title>
			<desc>Parse Response</desc>
			<path d="M7.09 639.93 L25.09 639.93 L25.09 657.93 L15.57 657.93" class="st7"/>
			<rect x="20.0268" y="644.908" width="50.859" height="9.59985" class="st9"/>
			<text x="20.03" y="652.11" class="st10">Parse Response</text>		</g>
		<g id="shape1007-109" transform="translate(172.302,-281.521)">
			<title>Return Message.1007</title>
			<desc>Show Response</desc>
			<path d="M0 632.84 L-128.54 632.84" class="st11"/>
			<rect x="-89.6761" y="628.042" width="50.812" height="9.59985" class="st9"/>
			<text x="-89.68" y="635.24" class="st10">Show Response</text>		</g>
		<g id="shape1008-116" transform="translate(306.512,-468.607)">
			<title>Self Message.1008</title>
			<desc>Build GBCS</desc>
			<path d="M7.09 639.93 L25.09 639.93 L25.09 657.93 L15.57 657.93" class="st7"/>
			<rect x="19.0456" y="645.461" width="35.5776" height="9.59985" class="st9"/>
			<text x="19.05" y="652.66" class="st10">Build GBCS</text>		</g>
		<g id="shape1009-123" transform="translate(313.925,-317.415)">
			<title>Message.1009</title>
			<desc>Send GBCS (over USB)</desc>
			<path d="M0 632.95 L115.48 632.75" class="st7"/>
			<rect x="26.2602" y="628.042" width="71.4411" height="9.59985" class="st9"/>
			<text x="26.26" y="635.24" class="st10">Send GBCS (over USB)</text>		</g>
		<g id="shape1010-130" transform="translate(-193.538,333.321) rotate(-90)">
			<title>Activation.1010</title>
			<rect x="0" y="631.424" width="18" height="8.50394" class="st6"/>
		</g>
		<g id="shape1011-132" transform="translate(-60.7455,387.321) rotate(-90)">
			<title>Activation.1011</title>
			<rect x="0" y="631.424" width="54" height="8.50394" class="st6"/>
		</g>
		<g id="shape1012-134" transform="translate(446.391,-313.694)">
			<title>Message.1012</title>
			<desc>Send GBCS (over ZigBee)</desc>
			<path d="M0 647.01 L115.81 647.01" class="st7"/>
			<rect x="22.1739" y="642.215" width="79.9406" height="9.59985" class="st9"/>
			<text x="22.17" y="649.42" class="st10">Send GBCS (over ZigBee)</text>		</g>
		<g id="shape1013-141" transform="translate(570.679,-245.521)">
			<title>Return Message.1013</title>
			<desc>Send GBCS (over ZigBee)</desc>
			<path d="M0 632.84 L-124.29 632.84" class="st11"/>
			<rect x="-102.114" y="628.042" width="79.9406" height="9.59985" class="st9"/>
			<text x="-102.11" y="635.24" class="st10">Send GBCS (over ZigBee)</text>		</g>
		<g id="shape1014-148" transform="translate(-193.538,405.321) rotate(-90)">
			<title>Activation.1014</title>
			<rect x="0" y="631.424" width="18" height="8.50394" class="st6"/>
		</g>
		<g id="shape1015-150" transform="translate(-326.33,459.321) rotate(-90)">
			<title>Activation.1015</title>
			<rect x="0" y="631.424" width="54" height="8.50394" class="st6"/>
		</g>
		<g id="shape1016-152" transform="translate(437.887,-227.521)">
			<title>Return Message.1016</title>
			<desc>Send GBCS (over USB)</desc>
			<path d="M0 632.84 L-124.29 632.84" class="st11"/>
			<rect x="-97.8646" y="628.042" width="71.4411" height="9.59985" class="st9"/>
			<text x="-97.86" y="635.24" class="st10">Send GBCS (over USB)</text>		</g>
		<g id="shape1017-159" transform="translate(572.096,-288.607)">
			<title>Self Message.1017</title>
			<desc>Process Message</desc>
			<path d="M7.09 639.93 L25.09 639.93 L25.09 657.93 L15.57 657.93" class="st7"/>
			<rect x="15.2339" y="645.268" width="55.2261" height="9.59985" class="st9"/>
			<text x="15.23" y="652.47" class="st10">Process Message</text>		</g>
		<g id="shape1018-166" transform="translate(306.512,-216.607)">
			<title>Self Message.1018</title>
			<desc>Build XML</desc>
			<path d="M7.09 639.93 L25.09 639.93 L25.09 657.93 L15.57 657.93" class="st7"/>
			<rect x="19.0456" y="644.922" width="32.5931" height="9.59985" class="st9"/>
			<text x="19.05" y="652.12" class="st10">Build XML</text>		</g>
		<g id="shape1020-173" transform="translate(305.094,-173.521)">
			<title>Return Message.1020</title>
			<desc>Send Response (I0)</desc>
			<path d="M0 632.84 L-124.29 632.84" class="st11"/>
			<rect x="-93.0384" y="628.042" width="61.7888" height="9.59985" class="st9"/>
			<text x="-93.04" y="635.24" class="st10">Send Response (I0)</text>		</g>
		<g id="shape1021-180" transform="translate(-459.122,585.321) rotate(-90)">
			<title>Activation.1021</title>
			<rect x="0" y="631.424" width="126" height="8.50394" class="st6"/>
		</g>
		<g id="shape1022-182" transform="translate(173.719,-162.607)">
			<title>Self Message.1022</title>
			<desc>Validate XML Signature &#38; Parse Response</desc>
			<path d="M7.09 639.93 L25.09 639.93 L25.09 657.93 L15.57 657.93" class="st7"/>
			<rect x="28.4149" y="638.974" width="82.9402" height="19.1997" class="st9"/>
			<text x="28.41" y="646.17" class="st10">Validate XML Signature &#38; <tspan x="44.46" dy="1.2em" class="st5">Parse Response</tspan></text>		</g>
		<g id="shape1023-190" transform="translate(-326.33,531.321) rotate(-90)">
			<title>Activation.1023</title>
			<rect x="0" y="631.424" width="18" height="8.50394" class="st6"/>
		</g>
		<g id="shape1024-192" transform="translate(180.806,-133.694)">
			<title>Message.1024</title>
			<desc>Lookup Device KA Certificate</desc>
			<path d="M0 647.01 L115.81 647.01" class="st7"/>
			<rect x="15.4086" y="642.215" width="93.4714" height="9.59985" class="st9"/>
			<text x="15.41" y="649.42" class="st10">Lookup Device KA Certificate</text>		</g>
		<g id="shape1025-199" transform="translate(305.094,-101.521)">
			<title>Return Message.1025</title>
			<desc>KA Certificate</desc>
			<path d="M0 632.84 L-124.29 632.84" class="st11"/>
			<rect x="-84.2921" y="628.042" width="44.2961" height="9.59985" class="st9"/>
			<text x="-84.29" y="635.24" class="st10">KA Certificate</text>		</g>
		<g id="group1026-206" transform="translate(97.6201,-61.8358)">
			<title>Optional fragment.1026</title>
			<g id="shape1026-207">
				<rect x="0" y="569.062" width="226.772" height="70.8661" class="st12"/>
			</g>
			<g id="shape1027-209" transform="translate(0,-53.2626)">
				<title>Sheet.1027</title>
				<desc>opt</desc>
				<path d="M0 639.93 L56.91 639.93 L64 632.84 L64 622.32 L0 622.32 L0 639.93 Z" class="st13"/>
				<text x="4" y="633.53" class="st14">opt</text>			</g>
			<g id="shape1028-212" transform="translate(0,-6.85912)">
				<title>Sheet.1028</title>
				<desc>When response contains sensitive data which is encrypted.</desc>
				<rect x="4.00012" y="597.527" width="57.6788" height="38.3997" class="st15"/>
				<text x="4" y="604.73" class="st16">When response <tspan x="4" dy="1.2em" class="st5">contains sensitive </tspan><tspan
							x="4" dy="1.2em" class="st5">data which is </tspan><tspan x="4" dy="1.2em" class="st5">encrypted.</tspan></text>			</g>
		</g>
		<g id="shape1030-218" transform="translate(173.719,-90.6074)">
			<title>Self Message.1030</title>
			<desc>Decrypt Sensitive Data</desc>
			<path d="M7.09 639.93 L25.09 639.93 L25.09 657.93 L15.57 657.93" class="st7"/>
			<rect x="20.0268" y="644.766" width="73.3936" height="9.59985" class="st9"/>
			<text x="20.03" y="651.97" class="st10">Decrypt Sensitive Data</text>		</g>
		<g id="shape1034-225" transform="translate(172.302,-47.5917)">
			<title>Return Message.1034</title>
			<desc>Show Response</desc>
			<path d="M0 632.91 L-128.21 632.77" class="st11"/>
			<rect x="-89.5125" y="628.042" width="50.812" height="9.59985" class="st9"/>
			<text x="-89.51" y="635.24" class="st10">Show Response</text>		</g>
		<g id="shape1035-232" transform="translate(305.094,-425.521)">
			<title>Return Message.1035</title>
			<desc>Pre-Command</desc>
			<path d="M0 632.84 L-124.29 632.84" class="st11"/>
			<rect x="-85.5716" y="628.042" width="46.855" height="9.59985" class="st9"/>
			<text x="-85.57" y="635.24" class="st10">Pre-Command</text>		</g>
		<g id="shape1036-239" transform="translate(173.719,-414.607)">
			<title>Self Message.1036</title>
			<desc>Sign Pre-Command</desc>
			<path d="M7.09 639.93 L25.09 639.93 L25.09 657.93 L15.57 657.93" class="st7"/>
			<rect x="20.0268" y="644.497" width="62.1439" height="9.59985" class="st9"/>
			<text x="20.03" y="651.7" class="st10">Sign Pre-Command</text>		</g>
		<g id="shape1037-246" transform="translate(180.806,-385.694)">
			<title>Message.1037</title>
			<desc>Send Request</desc>
			<path d="M0 647.01 L115.81 647.01" class="st7"/>
			<rect x="39.9493" y="642.215" width="44.39" height="9.59985" class="st9"/>
			<text x="39.95" y="649.42" class="st10">Send Request</text>		</g>
		<g id="shape1038-253" transform="translate(-326.33,315.321) rotate(-90)">
			<title>Activation.1038</title>
			<rect x="0" y="631.424" width="54" height="8.50394" class="st6"/>
		</g>
		<g id="group1031-255" transform="translate(97.6201,-371.521)">
			<title>Optional fragment.1031</title>
			<g id="shape1031-256">
				<rect x="0" y="569.062" width="226.772" height="70.8661" class="st12"/>
			</g>
			<g id="shape1032-258" transform="translate(0,-53.2626)">
				<title>Sheet.1032</title>
				<desc>opt</desc>
				<path d="M0 639.93 L56.91 639.93 L64 632.84 L64 622.32 L0 622.32 L0 639.93 Z" class="st13"/>
				<text x="4" y="633.53" class="st14">opt</text>			</g>
			<g id="shape1033-261" transform="translate(0,-16.4591)">
				<title>Sheet.1033</title>
				<desc>When command is &#34;critical&#34;. I.e., needs a signature.</desc>
				<rect x="4.00012" y="607.127" width="59.3822" height="28.7996" class="st15"/>
				<text x="4" y="614.33" class="st16">When command <tspan x="4" dy="1.2em" class="st5">is &#34;critical&#34;. I.e., </tspan><tspan
							x="4" dy="1.2em" class="st5">needs a signature.</tspan></text>			</g>
		</g>
	</g>
</svg>
